# xmcd
#
# Track frame offsets:
# 150
# 9505
# 18428
# 28484
# 40014
# 55033
# 64658
# 75739
# 87863
# 101461
# 111499
# 123227
#
# Disc length: 1840 seconds
#
#
# Revision: 0
# Processed by: cddbd v1.5.1PL0 Copyright (c) Steve Scherf et al.
# Submitted via: FreeRIP 2.70 
#
DISCID=91072e0c
DTITLE=Nelson, Willie - Face Of A Fighter
DYEAR=2001
DGENRE=Country
TTITLE0=One Step Beyond
TTITLE1=Why Are You Picking On Me
TTITLE2=The Healing Hands Of Time
TTITLE3=Touch Me
TTITLE4=And So Will You My Love
TTITLE5=Half A Man
TTITLE6=Go Away
TTITLE7=Following Me Around
TTITLE8=The Last Letter
TTITLE9=A New Way To Cry
TTITLE10=I'll Stay Around
TTITLE11=Face Of A Fighter
EXTD=Entered By Itaot...
EXTT0=
EXTT1=
EXTT2=
EXTT3=
EXTT4=
EXTT5=
EXTT6=
EXTT7=
EXTT8=
EXTT9=
EXTT10=
EXTT11=
PLAYORDER=
